<?xml version="1.0" encoding="utf-8"?>
<!-- Generator: Adobe Illustrator 16.0.4, SVG Export Plug-In . SVG Version: 6.00 Build 0)  -->
<!DOCTYPE svg PUBLIC "-//W3C//DTD SVG 1.1//EN" "http://www.w3.org/Graphics/SVG/1.1/DTD/svg11.dtd">
<svg version="1.1" id="cntrl" xmlns="http://www.w3.org/2000/svg" xmlns:xlink="http://www.w3.org/1999/xlink" x="0px" y="0px"
	 width="689.056px" height="200px" viewBox="0 0 689.056 200" enable-background="new 0 0 689.056 200" xml:space="preserve">
<path id="c" fill="#FC4C1B" d="M77.696,70.901c-6.698,0-12.311,1.528-16.839,4.579c-4.533,3.055-8.226,6.993-11.078,11.817
	c-2.857,4.829-4.875,10.146-6.057,15.953c-1.181,5.811-1.772,11.572-1.772,17.282c0,5.516,0.591,11.129,1.772,16.839
	c1.182,5.715,3.103,10.885,5.761,15.51c2.659,4.63,6.25,8.419,10.783,11.374c4.528,2.954,10.044,4.431,16.543,4.431
	c10.044,0,17.771-2.806,23.191-8.419c5.414-5.613,8.812-13.146,10.191-22.6h40.473c-2.761,20.287-10.635,35.746-23.634,46.382
	C114.033,194.682,97.388,200,77.105,200c-11.425,0-21.913-1.92-31.463-5.761c-9.555-3.841-17.679-9.204-24.372-16.1
	c-6.698-6.894-11.918-15.113-15.657-24.668C1.87,143.92,0,133.434,0,122.009c0-11.816,1.722-22.794,5.17-32.939
	c3.444-10.142,8.517-18.907,15.214-26.293c6.693-7.385,14.868-13.146,24.52-17.282c9.647-4.136,20.679-6.204,33.087-6.204
	c9.056,0,17.771,1.182,26.145,3.544c8.369,2.364,15.852,5.959,22.452,10.783c6.596,4.829,11.964,10.834,16.1,18.021
	c4.136,7.192,6.5,15.709,7.09,25.554h-41.064C105.955,79.666,95.615,70.901,77.696,70.901z"/>
<path id="n" fill="#FC4C1B" d="M214.178,47.268v21.27h0.886c5.317-8.863,12.209-15.312,20.679-19.351
	c8.466-4.034,17.135-6.056,25.997-6.056c11.227,0,20.431,1.528,27.623,4.579c7.187,3.056,12.851,7.289,16.986,12.703
	c4.136,5.419,7.04,12.015,8.715,19.793c1.671,7.783,2.511,16.396,2.511,25.85V200h-41.95v-86.262
	c0-12.602-1.971-22.009-5.909-28.213c-3.942-6.204-10.931-9.306-20.975-9.306c-11.425,0-19.696,3.397-24.815,10.192
	c-5.124,6.794-7.681,17.975-7.681,33.53V200h-41.95V47.268H214.178z"/>
<path id="t" fill="#FC4C1B" d="M433.377,45.791v28.065h-30.725v75.627c0,7.09,1.183,11.817,3.545,14.18
	c2.363,2.363,7.091,3.546,14.181,3.546c2.363,0,4.625-0.098,6.795-0.296c2.165-0.194,4.233-0.488,6.204-0.887v32.496
	c-3.546,0.591-7.487,0.983-11.816,1.184c-4.335,0.192-8.568,0.294-12.704,0.294c-6.499,0-12.656-0.442-18.464-1.329
	c-5.812-0.887-10.93-2.608-15.362-5.17c-4.431-2.558-7.931-6.204-10.488-10.93c-2.562-4.728-3.84-10.931-3.84-18.612V73.856h-25.406
	V45.791h25.406V0h41.949v45.791H433.377z"/>
<path id="r" fill="#FC4C1B" d="M493.345,47.268v28.36h0.59c1.968-4.727,4.626-9.108,7.977-13.147
	c3.347-4.034,7.188-7.482,11.522-10.34c4.329-2.852,8.959-5.068,13.884-6.647c4.92-1.573,10.044-2.363,15.362-2.363
	c2.756,0,5.807,0.493,9.158,1.477v38.995c-1.971-0.392-4.335-0.738-7.091-1.034c-2.76-0.295-5.418-0.443-7.977-0.443
	c-7.68,0-14.181,1.284-19.496,3.841c-5.318,2.562-9.602,6.056-12.852,10.487c-3.251,4.431-5.566,9.601-6.943,15.509
	c-1.379,5.909-2.067,12.311-2.067,19.203V200h-41.949V47.268H493.345z"/>
<path id="l" fill="#FC4C1B" d="M611.511,0v200h-41.949V0H611.511z"/>
<path id="dot" fill="#FC4C1B" d="M689.056,188.273c0,6.476-5.251,11.727-11.727,11.727h-19.546c-6.477,0-11.728-5.251-11.728-11.727
	v-19.547c0-6.476,5.251-11.727,11.728-11.727h19.546c6.476,0,11.727,5.251,11.727,11.727V188.273z"/>
</svg>
